<?xml version="1.0" encoding="utf-8"?>
<!-- Generator: Adobe Illustrator 22.0.1, SVG Export Plug-In . SVG Version: 6.00 Build 0)  -->
<svg version="1.1" id="Layer_1" xmlns="http://www.w3.org/2000/svg" xmlns:xlink="http://www.w3.org/1999/xlink" x="0px" y="0px"
	 viewBox="0 0 174.9 224.4" style="enable-background:new 0 0 174.9 224.4;" xml:space="preserve">
<style type="text/css">
	.st0{fill:#CC0000;}
	.st1{fill:none;}
	.st2{fill:#FFFFFF;}
</style>
<path class="st0" d="M97.3,14.7c-3.3,0-6.4,1.1-8.8,3c-2.4-1.9-5.5-3-8.8-3c-7.9,0-14.2,6.4-14.2,14.2c0,7.9,15.2,24,23,24
	s23-16.1,23-24C111.6,21.1,105.2,14.7,97.3,14.7z"/>
<path class="st1" d="M91.2,49.6c2.8-1.2,6.4-4,9.8-7.5c1.1-1.2,2.1-2.3,3-3.5c-4.1-1.1-8.4-1.7-12.8-1.9V49.6z"/>
<path class="st1" d="M96.9,52.6c-2,1.3-3.9,2.2-5.7,2.7v24.1h-5.4V55.3c-1.7-0.5-3.6-1.4-5.7-2.7c-2.6-1.7-5.4-4.1-8-6.8
	c-0.9-1-2.8-3-4.6-5.5C44,48.8,27.2,71.4,27.2,97.9c0,33.8,27.5,61.3,61.3,61.3c33.8,0,61.3-27.5,61.3-61.3
	c0-26.4-16.8-49-40.3-57.6c-1.8,2.5-3.6,4.5-4.6,5.5C102.4,48.5,99.6,50.9,96.9,52.6z"/>
<path class="st2" d="M101.1,42.1c-3.4,3.5-7,6.3-9.8,7.5v5.7c1.7-0.5,3.6-1.4,5.7-2.7c2.6-1.7,5.4-4.1,8-6.8c0.9-1,2.8-3,4.6-5.5
	c-1.8-0.7-3.6-1.2-5.5-1.7C103.2,39.7,102.2,40.9,101.1,42.1z"/>
<path class="st2" d="M80.2,52.6c2,1.3,3.9,2.2,5.7,2.7v-5.7c-2.8-1.2-6.4-4-9.8-7.5c-1.1-1.2-2.1-2.3-3-3.5
	c-1.9,0.5-3.7,1.1-5.5,1.7c1.8,2.5,3.6,4.5,4.6,5.5C74.7,48.5,77.5,50.9,80.2,52.6z"/>
<path class="st2" d="M68.2,29c0-6.4,5.2-11.5,11.5-11.5c2.6,0,5.1,0.8,7.1,2.5l1.7,1.3l1.7-1.3c2-1.6,4.5-2.5,7.1-2.5
	c6.4,0,11.5,5.2,11.5,11.5c0,1.2-0.6,2.9-1.6,4.8c1.8,0.5,3.5,1.1,5.2,1.7c1.1-2.2,1.9-4.5,1.9-6.6c0-9.3-7.6-16.9-16.9-16.9
	c-3.1,0-6.1,0.8-8.8,2.5c-2.6-1.6-5.6-2.5-8.8-2.5c-9.3,0-16.9,7.6-16.9,16.9c0,2.1,0.8,4.4,1.9,6.6c1.7-0.7,3.4-1.2,5.2-1.7
	C68.8,31.9,68.2,30.2,68.2,29z"/>
<path class="st2" d="M73,38.5c-1.3-1.6-2.3-3.2-3.1-4.7c-1.8,0.5-3.5,1.1-5.2,1.7c0.8,1.6,1.8,3.2,2.9,4.7
	C69.3,39.6,71.2,39,73,38.5z"/>
<path class="st2" d="M112.4,35.6c-1.7-0.7-3.4-1.2-5.2-1.7c-5.1-1.5-10.5-2.4-16-2.6c-0.9,0-1.8-0.1-2.7-0.1c-1.5,0-2.7,1.2-2.7,2.7
	v2.8v13v5.7v23.4h-1.6c-1.5,0-2.7,1.2-2.7,2.7s1.2,2.7,2.7,2.7h8.6c1.5,0,2.7-1.2,2.7-2.7s-1.2-2.7-2.7-2.7h-1.6V55.3v-5.7V37.9
	c0-0.7,0.6-1.3,1.3-1.2l0.1,0c3.9,0.3,7.8,0.9,11.5,1.9c1.9,0.5,3.7,1.1,5.5,1.7c23.5,8.6,40.3,31.2,40.3,57.6
	c0,33.8-27.5,61.3-61.3,61.3c-33.8,0-61.3-27.5-61.3-61.3c0-26.4,16.8-49,40.3-57.6c-1-1.4-2-3-2.9-4.7c-25,9.6-42.9,33.9-42.9,62.3
	c0,36.8,29.9,66.7,66.7,66.7s66.7-29.9,66.7-66.7C155.3,69.5,137.5,45.2,112.4,35.6z"/>
<g>
	<path class="st2" d="M40.6,166.2c-3.1,3.9-7.7,9.6-13.8,17.3c-0.9-0.7-2.1-1.7-3.8-3c2.7-3.4,6.8-8.5,12.2-15.4
		c-0.9-0.7-2.1-1.7-3.9-3.1c-2.7,3.4-6.8,8.5-12.2,15.4c-0.9-0.7-2.1-1.7-3.8-3c1.7-2.1,3.8-4.8,6.4-8c2.5-3.2,5.5-6.9,8.9-11.2
		c0.9,0.7,2.1,1.7,3.8,3c1.3,1,3.2,2.6,5.8,4.6c0.5,0.4,0.8,1,0.9,1.6C41.2,165,41,165.6,40.6,166.2z"/>
	<path class="st2" d="M57.7,172.8c-1.9,3.9-3.3,6.9-4.3,8.8c-1,2-1.7,3.4-2.1,4.4c-1.9,3.9-3.3,6.9-4.3,8.8c-2-1-3.4-1.7-4.4-2.1
		c1.9-3.9,3.3-6.9,4.3-8.8c-2-1-3.4-1.7-4.4-2.2c-1.9,3.9-3.3,6.9-4.3,8.8c-2-1-3.4-1.7-4.4-2.1c1.1-2.2,2-4,2.7-5.5
		c0.7-1.5,1.3-2.6,1.6-3.3c1.1-2.2,1.8-3.7,2.1-4.4c2.2-4.4,3.6-7.4,4.3-8.8c2.2,1.1,3.7,1.8,4.4,2.1c-2.1,4.4-3.6,7.4-4.3,8.8
		c2.2,1.1,3.7,1.8,4.4,2.2c2.2-4.4,3.6-7.4,4.3-8.8C55.2,171.6,56.7,172.3,57.7,172.8z"/>
	<path class="st2" d="M74.7,177.7c-1.1,4.8-2.8,11.9-5,21.5c-0.2,0.7-0.5,1.2-1.1,1.5c-0.6,0.4-1.2,0.5-1.9,0.3
		c-2.1-0.5-5.3-1.3-9.6-2.2c-0.7-0.2-1.2-0.5-1.5-1.1c-0.4-0.6-0.5-1.2-0.3-1.9c0.6-2.4,1.3-5.4,2.1-8.9c0.8-3.6,1.8-7.8,2.9-12.5
		c1.1,0.2,2.6,0.6,4.8,1.1c-1,4.2-2.5,10.6-4.5,19.1c1.1,0.3,2.7,0.6,4.8,1.1c1-4.3,2.5-10.6,4.5-19.1
		C71,176.9,72.6,177.2,74.7,177.7z"/>
	<path class="st2" d="M95.3,178.6c-2.9,6-5.1,10.6-6.5,13.6c0.1,5.5,0.1,9.2,0.2,11.1c-2.5,0-4.1,0.1-4.9,0.1
		c-0.1-5.5-0.1-9.2-0.2-11.1c-3.5-6.7-5.8-11.2-6.9-13.4c2.8,0,4.6-0.1,5.5-0.1c1.9,3.9,3.2,6.6,3.8,7.9c1.8-4,3-6.7,3.6-8
		C92.2,178.7,94,178.7,95.3,178.6z"/>
	<path class="st2" d="M112.5,187.9c0.6-0.2,1.3,0,1.9,0.3c0.6,0.3,0.9,0.9,1.1,1.5c0.5,2.1,1.3,5.3,2.3,9.6
		c-1.1,0.3-2.6,0.6-4.8,1.1c-0.5-2.1-1.3-5.3-2.3-9.6c-1.1,0.3-2.7,0.6-4.8,1.1c0.5,2.1,1.3,5.3,2.3,9.6c-1.1,0.3-2.6,0.6-4.8,1.1
		c-0.5-2.1-1.3-5.3-2.3-9.6c-0.3-1.1-0.6-2.6-1.1-4.8c-0.3-1.1-0.6-2.4-0.9-4c-0.4-1.6-0.8-3.5-1.3-5.6c1.1-0.3,2.6-0.6,4.8-1.1
		c1.6-0.4,4-0.9,7.2-1.7c0.6-0.2,1.3-0.1,1.8,0.3c0.6,0.4,0.9,0.9,1.1,1.5c0.4,1.6,0.9,4,1.7,7.2c0.2,0.6,0.1,1.3-0.3,1.8
		C113.7,187.4,113.2,187.8,112.5,187.9z M109.6,186.1c0-0.2-0.1-0.5-0.2-0.8c-0.2-0.9-0.5-2.2-0.9-4c-1.1,0.3-2.7,0.6-4.8,1.1
		c0.3,1.1,0.6,2.7,1.1,4.8C105.8,187,107.4,186.6,109.6,186.1z"/>
	<path class="st2" d="M121.7,177.2c1,2,1.7,3.4,2.2,4.4c3-1.4,5.2-2.5,6.6-3.2c1,2,1.7,3.4,2.1,4.4c-3,1.4-5.2,2.5-6.6,3.2
		c1,2,1.7,3.4,2.2,4.4c3.9-1.9,6.9-3.4,8.8-4.3c1,2,1.7,3.4,2.1,4.4c-3.9,1.9-6.9,3.3-8.8,4.3c-2,1-3.4,1.7-4.4,2.1
		c-0.5-1-0.9-1.8-1.3-2.6c-0.4-0.7-0.7-1.3-0.9-1.8c-1.1-2.2-1.8-3.7-2.2-4.4c-1.1-2.2-1.8-3.7-2.1-4.4c-1.1-2.2-1.8-3.7-2.2-4.4
		c-1.1-2.2-1.8-3.7-2.1-4.4c2.2-1.1,3.7-1.8,4.4-2.1c4.4-2.2,7.4-3.6,8.8-4.3c1.1,2.2,1.8,3.7,2.1,4.4
		C126.6,174.8,123.7,176.2,121.7,177.2z"/>
	<path class="st2" d="M131.4,166.6c0.7-0.5,2-1.4,4-2.8c1.8,2.5,5.3,7.5,10.7,15c0.6,0.8,1.8,2.5,3.6,5c-0.7,0.5-2,1.4-4,2.8
		c-1.2-1.7-3-4.2-5.3-7.5C138,175.8,135,171.7,131.4,166.6z"/>
	<path class="st2" d="M150.8,153.5c3.1,3.1,7.7,7.7,13.9,13.9c0.5,0.5,0.7,1.1,0.7,1.7c0,0.7-0.2,1.3-0.7,1.7
		c-1.2,1.2-2.9,2.9-5.2,5.2c-0.4,0.4-1,0.9-1.7,1.7c-0.4,0.4-1,1-1.7,1.7c-1.9-1.9-4.3-4.3-7.2-7.2c-2.9-2.9-6.2-6.3-10.1-10.1
		c0.7-0.7,1.7-1.7,3-3c0.1-0.1,0.2-0.2,0.4-0.4c1.2-1.2,2.9-2.9,5.2-5.2c0.5-0.5,1-0.7,1.7-0.7C149.8,152.7,150.3,153,150.8,153.5z
		 M156,172.6c0.8-0.8,2-1.9,3.5-3.5c-0.2-0.2-0.4-0.4-0.7-0.7c-2.2-2.2-5.4-5.4-9.7-9.8c-0.8,0.8-1.9,1.9-3.5,3.5
		c1.2,1.2,2.9,2.9,5.2,5.2C151.9,168.5,153.7,170.3,156,172.6z"/>
</g>
<path class="st1" d="M44.1,97.9"/>
<g>
	<ellipse transform="matrix(0.913 -0.408 0.408 0.913 -33.4359 49.7126)" class="st2" cx="99.8" cy="103.2" rx="5.8" ry="10.3"/>
	<ellipse transform="matrix(0.408 -0.913 0.913 0.408 -48.3781 131.8593)" class="st2" cx="77.5" cy="103.2" rx="10.3" ry="5.8"/>
	<path class="st2" d="M122.5,112.9c1.9-4.9,2.9-9.7,2.9-14.3c0-18.2-16.9-34.3-36.6-35.4c-0.2,0-0.4,0-0.6,0
		c-19.7,1.1-36.6,17.2-36.6,35.4c0,4.6,1,9.5,2.9,14.3c0,0.4,0,0.9,0,1.3c-0.9,1.7-1.3,3.6-1.3,5.5v0c0,8.1,6.6,14.6,14.6,14.6h2.8
		h0c0.3,0.3,0.7,0.5,1.1,0.8c1.1,0.8,2.3,1.9,3.4,3.4c2,2.6,4.9,4,7.9,4h5.5H94c3,0,5.9-1.5,7.9-4c0,0,0.1-0.1,0.1-0.1
		c1.6-2.1,4-3.4,6.6-3.8l1.6-0.2c0.4-0.1,0.8-0.1,1.2-0.1c6.9-0.3,12.4-6,12.4-13v-1.6c0-2-0.5-3.8-1.3-5.5
		C122.5,113.8,122.5,113.3,122.5,112.9z M115.4,115.8c1,1,1.7,2.4,1.7,4v0c0,4.3-3.5,7.8-7.8,7.8h-1.4c-2.3,0-4.5,0.7-6.3,2
		c-1.9,1.3-3.5,3-4.9,4.8c-0.7,0.9-1,1.4-2,1.4h-6h-6c-1,0-1.3-0.5-2-1.4c-1.4-1.8-3-3.5-4.9-4.8c-1.8-1.3-4-2-6.3-2h-1.4
		c-4.3,0-7.8-3.5-7.8-7.8v0c0-1.5,0.6-2.9,1.7-4c0.7-0.7,0.9-1.7,0.4-2.6c-2.3-4.8-3.7-9.9-3.7-14.6c0-15.4,14.7-27.9,30-28.6
		c0,0,0,0,0,0h0h0c0,0,0,0,0,0c15.3,0.7,30,13.3,30,28.6c0,4.7-1.3,9.8-3.7,14.6C114.5,114,114.7,115.1,115.4,115.8z"/>
	<g>
		<g>
			<g>
				<path class="st2" d="M90.1,112.1c0.5,0.3,1,0.7,1.5,1.3c0.4,0.4,1.7,1.9,1.7,3.1c0,1.7-1.4,3.1-3.1,3.1c-0.6,0-1.1-0.2-1.6-0.5
					c-0.5,0.3-1,0.5-1.6,0.5c-1.7,0-3.1-1.4-3.1-3.1c0-1.2,1.3-2.7,1.7-3.1c0.5-0.5,1-0.9,1.5-1.3c0.6-0.4,1.1-0.6,1.5-0.6
					C89,111.6,89.5,111.8,90.1,112.1z M88.2,118.2l0.3-0.2l0.3,0.2c0.4,0.3,0.8,0.5,1.3,0.5c1.2,0,2.1-1,2.1-2.1
					c0-0.5-0.6-1.5-1.4-2.4c-0.8-0.9-1.8-1.5-2.3-1.5c-0.5,0-1.5,0.6-2.3,1.5c-0.8,0.9-1.4,1.9-1.4,2.4c0,1.2,1,2.1,2.1,2.1
					C87.4,118.6,87.9,118.5,88.2,118.2z"/>
			</g>
		</g>
		<path class="st2" d="M88.6,112.1c0,0-4.1,1.9-4.1,4.5c0,2.6,2.6,2.6,2.6,2.6l1.6-0.6l1.9,0.6c0,0,2.5-0.6,2.4-2.7
			C92.8,114.4,88.6,112.1,88.6,112.1z"/>
	</g>
</g>
</svg>
